<svg width="35" height="35" viewBox="0 0 35 35" fill="none" xmlns="http://www.w3.org/2000/svg">
<g filter="url(#filter0_d)">
<path d="M20.5567 17.929C19.8535 17.4972 18.9355 17.6286 18.3735 18.2414C17.7466 18.925 17.1582 19.2635 16.5748 19.276C16.0245 19.2895 15.4493 18.9962 14.8623 18.4092L13.2057 16.7525C12.6186 16.1655 12.327 15.5893 12.3388 15.04C12.3514 14.4566 12.6899 13.8681 13.3734 13.2413C13.9862 12.6794 14.1175 11.7612 13.6859 11.0581C12.4596 9.06125 10.8781 7.84034 9.76738 7.16782C9.0822 6.75285 8.20707 6.86006 7.63918 7.42812L5.98279 9.08445C5.05561 10.0116 4.59556 11.1062 4.61544 12.3378C4.66248 15.258 7.42244 17.9181 7.61508 18.1001L8.94646 19.4315C9.15244 19.6374 9.48625 19.6374 9.69228 19.4315C9.89821 19.2256 9.89821 18.8917 9.69228 18.6857L8.35526 17.3487C8.35146 17.3449 8.34729 17.3409 8.34329 17.3372C8.31697 17.3124 5.70841 14.8305 5.66992 12.3179C5.65541 11.3708 6.00167 10.557 6.72856 9.83017L8.38495 8.17383C8.6087 7.95003 8.95253 7.90731 9.22105 8.06995C10.0487 8.57113 11.6125 9.69744 12.7871 11.6101C12.955 11.8836 12.9018 12.2427 12.6605 12.464C11.7663 13.2842 11.3033 14.1432 11.2843 15.0173C11.266 15.8652 11.6615 16.7 12.4598 17.4983L14.1164 19.155C14.9147 19.9533 15.7479 20.3499 16.5975 20.3305C17.4716 20.3116 18.3306 19.8485 19.1508 18.9542C19.372 18.713 19.7311 18.6597 20.0047 18.8278C21.9173 20.0022 23.0436 21.5661 23.5449 22.3937C23.7074 22.6622 23.6647 23.0061 23.4409 23.2299L21.7845 24.8862C21.0576 25.613 20.2432 25.9571 19.2968 25.9448C16.7842 25.9063 14.3024 23.2978 14.2779 23.2717C14.274 23.2676 14.2701 23.2636 14.266 23.2596L12.9689 21.9625C12.763 21.7566 12.4291 21.7566 12.2231 21.9625C12.0172 22.1684 12.0172 22.5023 12.2231 22.7083L13.5146 23.9997C13.6966 24.1923 16.3567 26.9522 19.2769 26.9994C19.3024 26.9998 19.3278 27 19.3532 27C20.5537 27 21.6223 26.54 22.5303 25.6321L24.1866 23.9757C24.7546 23.4076 24.8617 22.5325 24.4469 21.8475C23.7744 20.7367 22.5535 19.1552 20.5567 17.929Z" fill="#F3CD82"/>
<path d="M23.3833 0C19.5225 0 16.3815 3.14102 16.3815 7.00175C16.3815 8.54107 16.8681 9.99353 17.7905 11.2144V14.3625C17.7905 14.7248 18.165 14.9844 18.5048 14.8556L21.4594 13.7356C22.0831 13.9135 22.7293 14.0036 23.3833 14.0036C27.2441 14.0036 30.3851 10.8626 30.3851 7.00181C30.3851 3.14102 27.2441 0 23.3833 0ZM23.3833 12.9489C22.7743 12.9489 22.1736 12.8572 21.5978 12.6761C21.4848 12.6407 21.3633 12.6441 21.2527 12.686L18.8452 13.5986V11.0539C18.8499 10.9287 18.8098 10.8049 18.7306 10.7057C17.8838 9.64348 17.4362 8.36272 17.4362 7.00181C17.4362 3.72257 20.1041 1.05469 23.3833 1.05469C26.6626 1.05469 29.3304 3.72257 29.3304 7.00175C29.3305 10.281 26.6626 12.9489 23.3833 12.9489Z" fill="#F3CD82"/>
<path d="M23.4529 3.23067C23.1617 3.23067 22.9256 3.46681 22.9256 3.75801L22.9255 7.74895C22.9255 8.04015 23.1616 8.27629 23.4529 8.27629C23.7441 8.27629 23.9802 8.04015 23.9802 7.74895L23.9803 3.75801C23.9803 3.46676 23.7442 3.23067 23.4529 3.23067Z" fill="#F3F3F3"/>
<path d="M23.9399 9.96891C23.8294 9.7035 23.5168 9.57388 23.2511 9.68362C22.9854 9.79336 22.8563 10.107 22.9658 10.3723C23.0754 10.6378 23.3892 10.7679 23.6546 10.6576C23.9205 10.5471 24.049 10.235 23.9399 9.96891Z" fill="white"/>
<path d="M11.4292 20.4799C11.3187 20.2147 11.0064 20.0843 10.7404 20.1946C10.4753 20.3045 10.3449 20.6179 10.4552 20.8833C10.5654 21.1486 10.8783 21.2789 11.1439 21.1686C11.4089 21.0586 11.5397 20.7453 11.4292 20.4799Z" fill="#F3CD82"/>
</g>
<defs>
<filter id="filter0_d" x="0" y="0" width="35" height="35" filterUnits="userSpaceOnUse" color-interpolation-filters="sRGB">
<feFlood flood-opacity="0" result="BackgroundImageFix"/>
<feColorMatrix in="SourceAlpha" type="matrix" values="0 0 0 0 0 0 0 0 0 0 0 0 0 0 0 0 0 0 127 0" result="hardAlpha"/>
<feOffset dy="4"/>
<feGaussianBlur stdDeviation="2"/>
<feComposite in2="hardAlpha" operator="out"/>
<feColorMatrix type="matrix" values="0 0 0 0 0 0 0 0 0 0 0 0 0 0 0 0 0 0 0.25 0"/>
<feBlend mode="normal" in2="BackgroundImageFix" result="effect1_dropShadow"/>
<feBlend mode="normal" in="SourceGraphic" in2="effect1_dropShadow" result="shape"/>
</filter>
</defs>
</svg>
